<svg id='instagram' width="24" height="24" viewBox="0 0 24 24"
    xmlns="http://www.w3.org/2000/svg">
    <g clip-path="url(#clip0_1_2339)">
        <path d="M23.9765 7.05607C23.9203 5.78085 23.7141 4.90416 23.4186 4.14449C23.1139 3.33812 22.6451 2.61617 22.0308 2.01602C21.4306 1.40652 20.7039 0.932921 19.9069 0.632936C19.1428 0.337529 18.2707 0.131312 16.9955 0.0750879C15.7108 0.0141019 15.3029 0 12.0445 0C8.78603 0 8.37818 0.0141019 7.09821 0.0703262C5.82299 0.126551 4.9463 0.332951 4.18681 0.628174C3.38026 0.932922 2.65832 1.40176 2.05816 2.01602C1.44867 2.61617 0.975249 3.34288 0.67508 4.13991C0.379674 4.90416 0.173457 5.77609 0.117233 7.0513C0.0562466 8.33604 0.0421448 8.7439 0.0421448 12.0023C0.0421448 15.2608 0.0562466 15.6686 0.112471 16.9486C0.168695 18.2238 0.375095 19.1005 0.670502 19.8602C0.975249 20.6666 1.44867 21.3885 2.05816 21.9887C2.65832 22.5982 3.38502 23.0718 4.18205 23.3718C4.9463 23.6672 5.81823 23.8734 7.09363 23.9296C8.37342 23.986 8.78146 23.9999 12.0399 23.9999C15.2983 23.9999 15.7062 23.986 16.9862 23.9296C18.2614 23.8734 19.1381 23.6672 19.8976 23.3718C21.5105 22.7482 22.7857 21.4729 23.4093 19.8602C23.7045 19.096 23.9109 18.2238 23.9672 16.9486C24.0234 15.6686 24.0375 15.2608 24.0375 12.0023C24.0375 8.7439 24.0327 8.33604 23.9765 7.05607ZM21.8152 16.8549C21.7636 18.027 21.5667 18.6599 21.4026 19.0819C20.9993 20.1274 20.1695 20.9572 19.124 21.3605C18.702 21.5246 18.0645 21.7215 16.897 21.7729C15.6311 21.8293 15.2515 21.8433 12.0492 21.8433C8.84702 21.8433 8.46261 21.8293 7.20131 21.7729C6.02921 21.7215 5.39628 21.5246 4.97432 21.3605C4.45401 21.1682 3.98041 20.8634 3.596 20.4649C3.19748 20.0758 2.89274 19.6069 2.70044 19.0866C2.53634 18.6647 2.33947 18.027 2.288 16.8596C2.2316 15.5937 2.21768 15.2139 2.21768 12.0117C2.21768 8.80946 2.2316 8.42505 2.288 7.16394C2.33947 5.99183 2.53634 5.3589 2.70044 4.93694C2.89274 4.41645 3.19748 3.94303 3.60076 3.55843C3.98975 3.15992 4.45859 2.85517 4.97908 2.66306C5.40104 2.49896 6.03873 2.30209 7.20608 2.25044C8.47195 2.19422 8.85178 2.18011 12.0538 2.18011C15.2608 2.18011 15.6405 2.19422 16.9018 2.25044C18.0739 2.30209 18.7068 2.49896 19.1287 2.66306C19.649 2.85517 20.1227 3.15992 20.5071 3.55843C20.9056 3.94761 21.2103 4.41645 21.4026 4.93694C21.5667 5.3589 21.7636 5.99641 21.8152 7.16394C21.8715 8.42981 21.8856 8.80946 21.8856 12.0117C21.8856 15.2139 21.8715 15.589 21.8152 16.8549Z" />
        <path d="M12.0444 5.83789C8.64072 5.83789 5.87914 8.59929 5.87914 12.0032C5.87914 15.407 8.64072 18.1684 12.0444 18.1684C15.4483 18.1684 18.2097 15.407 18.2097 12.0032C18.2097 8.59929 15.4483 5.83789 12.0444 5.83789ZM12.0444 16.0024C9.83627 16.0024 8.04515 14.2115 8.04515 12.0032C8.04515 9.79484 9.83627 8.0039 12.0444 8.0039C14.2527 8.0039 16.0437 9.79484 16.0437 12.0032C16.0437 14.2115 14.2527 16.0024 12.0444 16.0024Z" />
        <path d="M19.893 5.5936C19.893 6.38844 19.2485 7.03291 18.4535 7.03291C17.6586 7.03291 17.0142 6.38844 17.0142 5.5936C17.0142 4.79859 17.6586 4.1543 18.4535 4.1543C19.2485 4.1543 19.893 4.79859 19.893 5.5936Z" />
    </g>
    <defs>
        <clipPath id="clip0_1_2339">
            <rect width="24" height="24" />
        </clipPath>
    </defs>
</svg>
