<svg id='youtube' width="24" height="24" viewBox="0 0 24 24"
    xmlns="http://www.w3.org/2000/svg">
    <path d="M22.7747 6.37521C22.5154 5.4113 21.7554 4.65146 20.7916 4.39191C19.0309 3.91016 11.988 3.91016 11.988 3.91016C11.988 3.91016 4.94536 3.91016 3.18466 4.37364C2.23943 4.63292 1.46091 5.41144 1.20163 6.37521C0.738281 8.13577 0.738281 11.7869 0.738281 11.7869C0.738281 11.7869 0.738281 15.4565 1.20163 17.1987C1.46118 18.1624 2.22089 18.9223 3.1848 19.1818C4.9639 19.6637 11.9883 19.6637 11.9883 19.6637C11.9883 19.6637 19.0309 19.6637 20.7916 19.2002C21.7555 18.9408 22.5154 18.181 22.7749 17.2172C23.2381 15.4565 23.2381 11.8055 23.2381 11.8055C23.2381 11.8055 23.2567 8.13577 22.7747 6.37521ZM9.7457 15.16V8.41386L15.6022 11.7869L9.7457 15.16Z" />
</svg>
